# xmcd
#
# Track frame offsets:
# 150
# 17840
# 35590
# 54062
# 71442
# 85547
# 106830
# 124222
# 141560
# 163857
# 183190
# 199820
#
# Disc length: 2868 seconds
#
#
# Revision: 4
# Processed by: cddbd v1.5.1PL0 Copyright (c) Steve Scherf et al.
# Submitted via: FreeRIP 2.90 
#
DISCID=9e0b320c
DTITLE=Chrystian and Ralf - Prazer Por Prazer
DYEAR=1995
DGENRE=
TTITLE0=Prazer Por Prazer
TTITLE1=Desejo De Amar
TTITLE2=Esse Amor Que Me Mata
TTITLE3=Em Busca De mim
TTITLE4=Machucando O Coração
TTITLE5=Na Luz Deste Sol (Let's Get Together)
TTITLE6=Inspiração Cabocla
TTITLE7=Trato   Trato
TTITLE8=Te Quiero
TTITLE9=Nunca Mais Vou Te Enganar
TTITLE10=Momentos De Nós Dois
TTITLE11=Encarando A Saudade
EXTD=
EXTT0=
EXTT1=
EXTT2=
EXTT3=
EXTT4=
EXTT5=
EXTT6=
EXTT7=
EXTT8=
EXTT9=
EXTT10=
EXTT11=
PLAYORDER=
